# xmcd
#
# Track frame offsets: 
#        150
#        21639
#        42462
#        64666
#        86302
#        109475
#        135525
#        155339
#        181942
#        203295
#        213994
#
# Disc length: 3418 seconds
#
# Revision: 2
# Processed by: cddbd v1.5.2PL0 Copyright (c) Steve Scherf et al.
# Submitted via: ExactAudioCopy v1.0b3
#
DISCID=920d580b
DTITLE=SOUL DOCTOR - BLOOD RUNS COLD (LIMITED EDITION DIGIPACK)
DYEAR=2007
DGENRE=Hard Rock
TTITLE0=Blood Runs Cold
TTITLE1=Temptation
TTITLE2=Laugh In The Face Of Danger
TTITLE3=F.A.F.O.D.
TTITLE4=Touch Of Love
TTITLE5=The Ocean
TTITLE6=The Lie
TTITLE7=Revolution
TTITLE8=Justine
TTITLE9=Mr. Youngblood
TTITLE10=Let's Zep
EXTD=
EXTT0=
EXTT1=
EXTT2=
EXTT3=
EXTT4=
EXTT5=
EXTT6=
EXTT7=
EXTT8=
EXTT9=
EXTT10=
PLAYORDER=
